<?xml version="1.0" standalone="no"?>
<!DOCTYPE svg PUBLIC "-//W3C//DTD SVG 20010904//EN"
 "http://www.w3.org/TR/2001/REC-SVG-20010904/DTD/svg10.dtd">
<svg version="1.0" xmlns="http://www.w3.org/2000/svg"
 width="1856.000000pt" height="1856.000000pt" viewBox="0 0 1856.000000 1856.000000"
 preserveAspectRatio="xMidYMid meet">
<metadata>
Created by potrace 1.14, written by Peter Selinger 2001-2017
</metadata>
<g transform="translate(0.000000,1856.000000) scale(0.100000,-0.100000)"
fill="#000000" stroke="none">
<path d="M6950 11981 c-150 -33 -300 -117 -389 -217 -157 -178 -184 -459 -64
-663 82 -141 257 -257 445 -296 90 -19 302 -19 393 0 86 18 210 77 290 138
268 203 289 612 44 858 -72 73 -201 145 -314 175 -94 25 -301 28 -405 5z"/>
<path d="M10908 11990 c-281 -48 -496 -231 -553 -471 -72 -306 99 -582 430
-695 69 -24 100 -28 232 -32 186 -5 266 10 403 75 225 108 353 321 336 558
-18 244 -154 424 -396 522 -119 47 -314 66 -452 43z"/>
<path d="M8010 10063 c-182 -20 -431 -85 -604 -157 -527 -222 -874 -687 -962
-1290 -25 -173 -15 -539 20 -702 72 -339 219 -617 446 -844 219 -219 476 -359
819 -445 185 -46 302 -59 516 -59 272 0 461 31 716 120 577 200 962 666 1074
1299 22 125 30 405 16 540 -33 309 -134 593 -294 830 -86 127 -285 323 -413
408 -221 147 -518 252 -822 292 -103 14 -415 19 -512 8z m375 -1048 c211 -55
367 -237 419 -487 21 -99 21 -322 1 -416 -50 -238 -189 -415 -381 -483 -73
-26 -227 -36 -305 -20 -138 29 -281 130 -355 253 -46 76 -89 194 -104 291 -16
99 -7 329 15 412 65 235 212 395 412 450 67 18 226 18 298 0z"/>
<path d="M16521 10054 c-197 -27 -426 -94 -594 -174 -608 -289 -950 -976 -877
-1765 51 -547 297 -984 711 -1261 454 -303 1122 -380 1668 -192 500 171 878
546 1024 1013 14 44 28 97 32 118 l7 37 -640 0 -641 0 -31 -65 c-62 -129 -194
-223 -343 -244 -86 -12 -226 2 -299 29 -160 60 -265 220 -297 454 -6 43 -9 82
-5 87 3 5 474 9 1149 9 l1143 0 6 28 c16 77 26 179 26 282 0 345 -101 687
-287 969 -80 121 -270 309 -400 395 -216 143 -518 248 -823 285 -117 15 -403
12 -529 -5z m432 -939 c220 -57 366 -238 367 -452 l0 -63 -541 0 -542 0 7 53
c16 121 82 254 166 336 50 48 160 107 236 125 79 19 236 20 307 1z"/>
<path d="M2100 10055 c-8 -2 -49 -9 -90 -15 -301 -49 -582 -225 -745 -468
l-45 -67 0 263 0 262 -610 0 -610 0 0 -1710 0 -1710 606 -2 c333 -2 608 -1
610 1 2 2 4 439 4 971 0 1063 -3 1015 63 1150 42 87 141 186 227 228 95 46
169 62 290 62 268 0 449 -117 539 -348 l26 -67 5 -998 5 -997 605 0 605 0 5
992 5 993 26 67 c70 179 201 296 384 343 34 9 103 15 165 15 62 0 131 -6 165
-15 183 -47 315 -166 379 -344 21 -55 21 -79 26 -1054 l5 -997 605 0 605 0 0
1092 c0 1007 -1 1102 -18 1203 -58 352 -179 599 -393 806 -228 220 -520 331
-909 346 -179 7 -327 -12 -474 -59 -281 -89 -542 -284 -703 -524 -24 -35 -45
-63 -48 -63 -3 0 -34 45 -69 100 -169 261 -429 438 -761 516 -86 20 -138 25
-285 28 -99 2 -187 2 -195 0z"/>
<path d="M14685 10053 c-302 -39 -574 -175 -810 -405 -60 -59 -132 -138 -160
-177 -27 -38 -53 -70 -57 -70 -5 -1 -8 141 -8 314 l0 315 -605 0 -605 0 0
-1712 0 -1713 604 3 605 2 4 813 c4 909 1 873 77 1033 30 62 54 95 100 137
149 138 355 187 786 187 l204 0 0 640 0 640 -52 -1 c-29 -1 -66 -4 -83 -6z"/>
<path d="M10540 8322 c0 -940 2 -1711 4 -1713 2 -2 277 -3 610 -1 l606 2 0
1710 0 1710 -610 0 -610 0 0 -1708z"/>
</g>
</svg>
